<?xml version="1.0" standalone="no"?>
<svg version="1.0" xmlns="http://www.w3.org/2000/svg"
 width="300.000000pt" height="330.000000pt" viewBox="0 0 300.000000 330.000000"
 preserveAspectRatio="xMidYMid meet">
<g transform="translate(0.000000,330.000000) scale(0.100000,-0.100000)"
fill="#ffffff" stroke="none">
<path d="M1666 3087 l17 -28 -64 8 c-88 11 -170 8 -179 -7 -4 -7 -13 -9 -19
-6 -6 4 -11 2 -11 -3 0 -6 -4 -11 -10 -11 -5 0 -10 10 -10 23 -1 21 -1 21 -15
3 -10 -13 -28 -20 -52 -20 -45 -1 -83 -24 -83 -49 0 -11 -4 -15 -11 -11 -9 5
-10 -1 -5 -20 4 -16 1 -35 -7 -49 -35 -55 -45 -226 -21 -343 6 -30 4 -31 -19
-27 -22 4 -27 1 -35 -28 -5 -21 -5 -44 1 -59 5 -14 17 -54 26 -90 13 -48 23
-68 39 -75 15 -7 22 -19 22 -38 0 -16 13 -62 30 -104 45 -112 38 -221 -15
-232 -11 -2 -31 -12 -44 -22 -13 -11 -36 -19 -50 -19 -15 0 -35 -6 -46 -14
-11 -7 -36 -17 -55 -21 -19 -4 -57 -18 -85 -30 -51 -24 -145 -59 -203 -76 -17
-6 -60 -31 -95 -58 -54 -42 -65 -55 -85 -112 -63 -173 -86 -245 -122 -374 -21
-77 -52 -179 -68 -227 -42 -119 -43 -139 -12 -155 14 -7 50 -20 81 -28 l56
-16 7 -67 c13 -132 63 -323 98 -367 17 -22 27 -25 89 -25 49 0 69 -4 69 -12 0
-7 -15 -77 -33 -156 -33 -140 -33 -143 -13 -140 18 3 24 18 43 108 13 58 25
115 28 128 6 27 35 29 127 8 35 -8 98 -18 141 -21 42 -4 80 -12 83 -17 4 -6 9
-6 14 2 6 9 13 9 29 1 14 -8 21 -8 21 -1 0 5 21 10 48 10 60 0 352 37 403 50
22 6 45 10 52 8 6 -2 30 3 52 10 35 12 49 11 100 -3 85 -24 149 -33 232 -34
58 -1 74 -4 81 -18 5 -10 12 -65 15 -123 4 -58 7 -106 7 -107 0 -2 9 -3 20 -3
11 0 18 5 16 13 -3 6 -7 70 -10 142 l-6 130 87 3 c48 2 95 8 104 12 20 11 67
107 85 175 8 28 17 90 20 138 6 78 10 90 28 97 12 4 30 17 40 29 17 18 18 25
6 49 -19 41 -68 190 -80 247 -7 28 -14 94 -16 147 -3 80 -11 115 -38 190 -71
193 -78 205 -149 259 -36 27 -75 49 -86 49 -29 0 -102 30 -127 52 -12 10 -38
22 -60 25 -21 3 -52 16 -70 28 -18 12 -47 27 -65 34 -19 7 -41 17 -49 22 -8 5
-30 19 -47 30 l-33 21 0 94 c0 52 4 94 9 94 12 0 61 103 61 128 0 11 8 30 19
43 10 13 21 40 25 60 3 19 15 53 26 74 11 22 20 50 20 63 0 34 -18 62 -35 56
-19 -8 -19 1 0 73 10 37 15 96 14 166 -1 59 1 111 5 114 3 3 -5 21 -19 39 -14
18 -25 44 -25 57 0 14 -6 40 -14 58 l-14 34 -8 -29 -7 -29 -18 24 c-25 32 -24
47 1 24 11 -10 20 -14 20 -8 0 5 -9 18 -19 27 -18 17 -20 16 -26 -3 -12 -38
-61 -28 -107 22 -27 29 -34 33 -22 14z m-102 -60 c3 4 16 7 28 8 20 2 20 1 3
-12 -11 -7 -24 -13 -29 -14 -6 0 -2 -4 9 -8 11 -5 25 -4 33 1 6 6 25 8 42 5
16 -4 32 -2 35 3 9 15 25 12 25 -5 0 -13 9 -15 40 -12 22 2 40 1 40 -3 0 -4
11 -13 25 -20 16 -8 25 -22 25 -37 0 -13 7 -34 15 -47 15 -23 23 -101 12 -113
-4 -3 -7 1 -7 10 0 8 -10 19 -22 23 -13 4 -26 12 -30 18 -5 8 -10 8 -19 -1
-17 -17 0 -35 26 -29 24 6 43 -18 24 -30 -6 -4 -4 -15 6 -31 28 -43 18 -404
-14 -485 -5 -13 -15 -42 -22 -65 -7 -24 -16 -43 -20 -43 -4 0 -17 -21 -29 -46
-13 -25 -33 -50 -46 -56 -13 -6 -24 -15 -24 -20 0 -4 -10 -8 -23 -8 -13 0 -28
-5 -35 -12 -9 -9 -12 -5 -12 19 0 18 -5 35 -12 39 -7 4 -8 3 -4 -4 4 -6 2 -21
-5 -33 -8 -15 -8 -19 0 -15 6 4 11 1 11 -6 0 -17 -48 -40 -56 -27 -3 6 -14 7
-24 4 -11 -3 -30 0 -42 7 -13 7 -26 11 -30 10 -15 -4 -8 21 10 34 16 12 15 13
-5 11 -12 0 -20 -4 -17 -8 10 -16 -20 -21 -31 -5 -7 9 -17 15 -22 14 -12 -4
-82 78 -94 109 -5 13 -6 29 -3 37 3 8 -3 23 -14 34 -29 29 -41 124 -41 307 0
158 7 248 23 273 4 7 19 17 32 22 13 5 24 14 24 19 0 14 -41 0 -47 -15 -3 -8
-11 -14 -19 -14 -21 0 -10 75 21 143 24 52 45 74 45 46 0 -5 6 -7 12 -2 18 10
106 25 150 24 20 0 40 4 43 10 5 7 11 7 19 0 7 -6 16 -8 20 -4z m-314 -234
c-1 -5 -7 -19 -15 -33 l-14 -25 -1 33 c0 22 5 32 15 32 8 0 15 -3 15 -7z m-36
-285 c8 -13 8 -23 -2 -38 -7 -12 -8 -20 -2 -20 12 0 9 -124 -3 -136 -4 -4 -7
6 -7 22 0 17 -6 36 -12 43 -11 10 -9 11 5 5 16 -6 16 -4 6 19 -7 15 -16 24
-20 21 -5 -3 -9 9 -9 26 0 18 -4 29 -10 25 -14 -9 -13 11 3 35 14 24 35 22 51
-2z m704 -68 c2 -23 0 -30 -6 -22 -6 9 -11 -3 -16 -37 -4 -28 -10 -51 -15 -51
-9 0 -12 92 -4 128 9 36 37 23 41 -18z m-553 -420 c17 -18 39 -36 50 -41 11
-5 35 -18 54 -30 34 -20 70 -26 106 -16 37 9 132 55 139 66 4 6 15 15 24 20
15 8 17 1 17 -67 l0 -77 33 -15 c32 -14 33 -17 29 -59 -5 -49 -29 -86 -77
-119 -52 -35 -107 -47 -215 -47 -89 0 -106 3 -157 28 -68 34 -121 91 -138 151
-16 58 -10 81 19 80 16 -1 30 10 47 35 21 32 23 42 15 88 -7 46 -6 51 8 43 9
-4 30 -23 46 -40z m-161 -221 c29 -84 99 -146 202 -181 165 -56 397 17 431
135 7 25 15 33 36 35 15 2 27 -1 27 -6 0 -9 26 -20 42 -18 3 1 18 -10 33 -24
16 -15 36 -24 49 -22 13 2 46 -11 75 -29 28 -18 66 -34 84 -36 17 -2 37 -9 42
-16 6 -6 15 -12 20 -13 29 -1 65 -18 65 -30 0 -7 8 -18 19 -23 17 -9 46 -65
78 -151 42 -111 53 -157 58 -238 2 -49 12 -122 21 -163 8 -41 17 -82 19 -92 2
-9 7 -22 10 -27 3 -6 -1 -7 -9 -4 -9 3 -16 13 -16 21 0 29 -45 63 -85 65 -28
1 -45 9 -66 30 -35 38 -61 35 -158 -15 l-73 -38 4 61 c3 40 1 59 -6 57 -6 -2
-16 5 -23 17 -9 15 -13 17 -13 6 -1 -8 -10 3 -21 25 -18 39 -19 39 -13 8 3
-18 3 -46 -1 -63 -6 -26 -9 -28 -26 -17 -17 10 -23 9 -34 -7 -10 -13 -11 -24
-4 -37 16 -31 45 -23 66 18 18 37 43 56 43 32 0 -7 -8 -21 -17 -32 -17 -19
-17 -20 0 -14 9 4 17 2 17 -4 0 -5 -7 -12 -16 -16 -15 -6 -15 -8 2 -20 13 -9
15 -16 7 -24 -7 -7 -14 -6 -25 4 -8 8 -26 12 -44 10 -38 -6 -58 16 -58 64 0
41 27 67 62 58 18 -4 22 -1 22 20 0 23 -3 25 -27 19 -16 -4 -34 -10 -42 -14
-8 -4 -26 -1 -40 6 -14 8 -36 14 -48 14 -12 0 -35 11 -51 25 -35 29 -77 32
-111 8 -19 -13 -28 -14 -42 -5 -25 16 -46 15 -56 -1 -4 -7 -33 -20 -64 -28
-47 -13 -59 -13 -75 -2 -21 15 -70 17 -79 3 -9 -14 -35 -13 -35 2 0 14 -40 58
-52 58 -19 0 -41 -33 -48 -69 -10 -54 -1 -104 24 -136 19 -23 30 -28 67 -27
24 0 54 -4 66 -10 16 -8 30 -8 45 -1 15 6 33 6 54 0 21 -7 46 -6 72 0 22 6 46
7 53 2 7 -4 21 -3 32 3 13 6 27 6 45 -1 15 -6 73 -9 130 -7 56 1 102 0 102 -4
0 -3 16 -7 37 -8 20 -2 40 -5 45 -8 17 -11 7 -37 -28 -72 -20 -20 -48 -51 -62
-70 l-26 -34 -86 5 c-88 5 -144 16 -365 74 -71 19 -142 34 -157 34 -17 0 -33
8 -43 22 -12 18 -15 19 -15 4 0 -24 -39 -22 -67 5 -13 12 -23 16 -23 10 0 -6
-7 -9 -15 -6 -19 8 -20 34 -1 34 7 0 25 27 40 60 15 32 31 62 36 65 21 13 2
57 -59 137 -12 14 -21 34 -21 44 0 10 -10 28 -21 40 l-22 23 -37 -27 c-21 -15
-46 -39 -57 -54 -24 -38 -33 -35 -34 10 0 20 -9 91 -19 157 -11 66 -17 95 -15
65 14 -174 17 -350 7 -350 -6 0 -17 19 -24 43 -11 39 -23 56 -40 57 -3 0 5
-24 19 -52 14 -29 26 -66 27 -83 1 -16 9 -38 19 -48 12 -12 17 -27 13 -40 -3
-12 -6 -34 -6 -48 0 -39 -23 -42 -102 -14 -63 23 -82 25 -176 21 -88 -4 -110
-8 -134 -26 -37 -27 -155 -42 -144 -19 3 8 9 22 12 32 4 9 10 17 15 17 5 0 9
8 9 18 0 10 9 45 21 77 12 33 23 67 25 75 21 83 28 108 34 125 5 11 14 43 21
70 6 28 16 54 20 60 5 5 9 16 9 25 0 8 18 61 39 117 38 98 76 152 109 153 6 0
12 4 12 9 0 5 21 17 48 27 26 10 52 20 57 24 6 4 33 13 60 20 28 7 55 18 60
24 6 6 19 13 30 14 11 2 39 13 63 23 23 11 56 22 72 26 17 3 30 9 30 13 0 5
12 5 26 1 18 -5 30 -18 38 -42z m-94 -553 c0 -7 -7 -19 -15 -26 -13 -11 -9
-16 25 -39 22 -14 40 -33 40 -43 0 -24 -21 -23 -53 2 -35 27 -51 25 -81 -11
-34 -40 -33 -71 5 -114 37 -41 61 -44 83 -10 19 29 46 33 46 7 0 -26 -52 -72
-81 -72 -42 0 -109 84 -109 137 0 37 17 68 75 136 39 47 65 60 65 33z m210
-150 c0 -70 1 -74 25 -80 35 -9 31 -26 -5 -26 -19 0 -33 7 -40 19 -11 22 -14
144 -3 154 17 18 23 1 23 -67z m330 29 c0 -16 6 -25 15 -25 8 0 15 -4 15 -10
0 -5 -7 -10 -15 -10 -11 0 -15 -11 -15 -40 0 -30 4 -40 16 -40 17 0 15 -21 -3
-27 -16 -6 -45 28 -39 44 3 8 6 41 6 74 0 33 4 59 10 59 6 0 10 -11 10 -25z
m157 8 c3 -7 -10 -13 -34 -15 -30 -2 -41 -9 -51 -30 -20 -43 8 -88 56 -88 14
0 22 -5 20 -12 -8 -23 -45 -19 -77 7 -44 38 -44 92 0 130 33 27 79 31 86 8z
m-342 -43 c22 -24 14 -47 -20 -56 -27 -7 -33 -19 -12 -27 6 -2 20 2 30 11 14
13 17 13 17 1 0 -20 -20 -39 -42 -39 -51 0 -78 85 -36 114 29 21 41 20 63 -4z
m-268 -5 c3 -9 4 -18 2 -20 -3 -2 -39 -7 -82 -11 -74 -6 -77 -6 -77 14 0 18 7
21 53 25 28 2 62 4 75 5 13 1 25 -5 29 -13z m395 -2 c26 -23 23 -30 -24 -55
-39 -20 -41 -23 -19 -26 15 -2 28 2 33 12 11 20 28 21 28 2 0 -18 -38 -46 -62
-46 -24 0 -58 35 -58 60 0 25 43 70 66 70 10 0 26 -7 36 -17z m316 1 c44 -30
19 -114 -35 -114 -29 0 -63 33 -63 62 0 26 37 68 60 68 8 0 26 -7 38 -16z
m410 -88 c6 -27 -24 -52 -88 -76 -56 -21 -162 -99 -168 -124 -1 -7 -16 -20
-32 -30 -17 -9 -30 -22 -30 -27 0 -5 -10 -14 -22 -19 -18 -7 -12 -9 32 -10
188 -5 239 -7 277 -14 57 -11 91 -1 99 29 3 13 12 29 20 36 8 6 14 20 14 30 0
10 9 23 21 29 11 7 19 14 16 16 -7 8 -62 -25 -63 -38 -1 -7 -2 -18 -3 -24 -3
-27 -51 -64 -83 -64 -50 0 -63 12 -38 35 15 14 20 15 20 4 1 -10 4 -9 11 4 5
9 15 17 22 17 7 0 20 12 30 26 18 24 16 23 -35 -8 -29 -18 -59 -38 -66 -45
-16 -16 -3 -14 -134 -18 -60 -2 -108 0 -108 3 0 14 149 136 199 163 70 39 208
74 227 58 8 -6 14 -17 14 -23 0 -27 26 -64 51 -73 23 -9 29 -19 35 -59 6 -40
3 -55 -14 -85 -14 -23 -24 -63 -27 -106 -10 -123 -44 -219 -84 -234 -19 -8
-22 -12 -12 -18 22 -14 2 -31 -35 -31 -21 0 -33 4 -29 10 3 6 -1 10 -10 10 -9
0 -13 -4 -10 -10 3 -5 -7 -12 -22 -15 -15 -4 -52 -13 -82 -22 -108 -32 -321 3
-411 67 -16 12 -78 44 -137 71 -59 28 -139 66 -178 84 -88 41 -167 65 -218 65
-73 0 -301 92 -337 136 -15 17 -15 107 0 134 7 13 31 22 81 30 65 11 75 10
126 -9 30 -11 84 -25 121 -31 61 -9 186 -38 395 -91 44 -11 125 -23 182 -26
101 -6 103 -5 110 17 4 13 44 62 88 109 71 76 91 91 171 128 50 23 96 41 101
39 6 -1 12 -10 13 -20z m-1303 -87 c-4 -5 -15 -9 -26 -9 -15 0 -19 7 -19 33 0
19 3 37 7 40 9 9 45 -52 38 -64z m-166 -24 l63 -18 -6 -36 c-3 -20 -6 -51 -6
-69 l0 -33 -25 28 c-14 16 -24 22 -25 14 0 -18 61 -75 114 -106 56 -32 225
-92 285 -100 99 -14 204 -56 455 -181 37 -19 76 -34 86 -34 26 0 34 -17 13
-24 -56 -17 -229 -48 -368 -67 -194 -26 -331 -21 -510 16 -66 14 -121 25 -122
25 -2 0 -3 6 -3 14 0 17 -31 26 -92 26 -50 0 -88 26 -88 60 0 9 -9 43 -20 75
-18 51 -41 159 -54 253 -2 18 -9 39 -15 46 -6 7 -12 35 -13 62 l-3 49 55 12
c71 16 198 10 279 -12z m-369 -41 c0 -10 -7 -14 -22 -12 -32 5 -35 28 -4 28
17 0 26 -5 26 -16z"/>
<path d="M1663 2908 c-4 -7 -6 -23 -5 -34 3 -20 0 -22 -46 -17 -40 4 -51 1
-56 -13 -6 -15 -9 -15 -28 6 -18 20 -23 21 -32 8 -8 -11 -30 -15 -81 -14 -48
1 -75 -4 -87 -14 -30 -24 -20 -31 22 -14 27 11 52 14 82 9 77 -13 102 -14 140
-6 24 6 41 5 49 -3 9 -8 10 -8 6 0 -4 7 0 15 9 18 23 9 36 7 29 -4 -4 -6 9
-10 30 -10 30 0 36 3 31 16 -3 9 -6 23 -6 32 0 13 -3 12 -14 -4 -18 -23 -26
-16 -29 25 -2 35 -3 36 -14 19z"/>
<path d="M1329 2586 c-32 -14 -27 -35 6 -28 29 5 155 -27 155 -40 0 -5 -5 -6
-12 -2 -7 5 -9 0 -6 -14 4 -16 0 -22 -16 -26 -16 -3 -16 -4 4 -2 14 1 24 7 23
14 -2 6 4 12 12 12 18 0 19 11 3 44 -12 28 -26 35 -87 41 -23 2 -45 6 -49 8
-4 2 -19 -1 -33 -7z"/>
<path d="M1683 2566 c-76 -10 -79 -11 -63 -36 7 -12 16 -13 55 -2 55 15 90 15
116 2 14 -8 19 -7 19 2 0 8 -12 20 -27 29 -23 12 -42 13 -100 5z"/>
<path d="M1321 2517 c-8 -11 -5 -19 12 -35 24 -22 45 -19 27 3 -8 9 -6 14 4
18 9 4 20 -1 25 -10 8 -15 11 -15 42 1 l34 17 -33 -5 c-18 -3 -31 -2 -28 3 3
5 -8 11 -25 15 -43 8 -45 8 -58 -7z"/>
<path d="M1610 2500 c0 -5 -7 -10 -15 -10 -21 0 -19 -13 5 -35 19 -17 19 -16
17 11 -2 25 1 29 23 26 19 -2 22 0 10 8 -19 13 -40 13 -40 0z"/>
<path d="M1674 2499 c-3 -6 1 -18 10 -27 16 -16 18 -16 31 2 9 12 20 16 32 12
17 -7 17 -8 0 -21 -13 -9 -15 -15 -6 -20 7 -5 16 -1 21 9 5 9 16 16 25 16 14
0 14 2 -2 20 -20 22 -99 29 -111 9z"/>
<path d="M1590 2414 c0 -5 11 -27 25 -49 31 -51 31 -56 -4 -49 -17 4 -32 1
-36 -5 -5 -8 1 -10 19 -5 18 4 26 2 26 -7 0 -10 5 -9 17 3 15 16 15 20 -2 58
-17 39 -45 72 -45 54z"/>
<path d="M1472 2373 c-24 -35 -28 -58 -10 -69 8 -5 9 -2 4 11 -4 12 1 26 15
41 12 12 19 28 17 35 -2 7 -13 0 -26 -18z"/>
<path d="M1465 2260 c-9 -10 -20 -19 -24 -19 -22 3 -52 -17 -57 -38 -8 -31 8
-49 26 -28 7 9 31 16 59 16 44 2 45 2 11 8 l-35 6 32 14 c20 8 30 18 26 25 -4
6 1 5 10 -3 22 -17 28 -12 20 17 -7 28 -43 29 -68 2z"/>
<path d="M1555 2260 c-8 -26 -8 -26 34 -37 36 -9 55 -33 26 -33 -9 0 -13 -5
-10 -10 3 -6 17 -7 30 -4 12 3 26 1 29 -5 12 -18 36 -12 36 8 0 18 -47 61 -65
61 -4 0 -13 6 -19 14 -6 8 -21 17 -33 20 -16 5 -23 2 -28 -14z"/>
<path d="M1497 2133 c-9 -9 -9 -33 1 -32 23 4 32 -4 32 -26 0 -14 6 -25 13
-26 6 0 2 -4 -10 -9 -14 -6 -21 -15 -17 -24 5 -12 9 -13 25 -3 22 14 23 20 7
48 -11 17 -10 22 12 39 21 17 23 21 10 30 -17 11 -63 13 -73 3z"/>
<path d="M2246 1501 c-28 -44 -58 -112 -52 -118 2 -2 11 14 20 37 9 22 27 58
41 80 14 22 23 40 20 40 -2 0 -16 -17 -29 -39z"/>
<path d="M711 1395 c0 -16 41 -59 79 -85 27 -17 25 -13 -12 19 -26 23 -52 50
-58 59 -5 9 -9 13 -9 7z"/>
<path d="M658 1235 c10 -20 92 -93 122 -110 13 -7 13 -6 0 7 -66 64 -131 119
-122 103z"/>
<path d="M2192 1164 c-16 -20 -37 -54 -45 -77 -9 -23 -11 -34 -4 -23 94 147
104 167 49 100z"/>
<path d="M1410 1065 c-13 -16 -8 -18 28 -9 12 4 22 10 22 15 0 15 -37 10 -50
-6z"/>
<path d="M1527 1063 c-4 -3 -7 -12 -7 -20 0 -11 6 -11 30 2 17 9 30 18 30 20
0 8 -46 6 -53 -2z"/>
<path d="M1847 1063 c-14 -13 -7 -53 11 -62 37 -20 70 27 40 57 -13 13 -41 16
-51 5z"/>
<path d="M2381 888 c-18 -5 -43 -15 -55 -22 -11 -8 -33 -17 -49 -20 -36 -9
-133 -71 -141 -91 -6 -17 -6 -17 61 28 39 27 174 87 195 87 5 0 16 7 24 15 17
17 13 17 -35 3z"/>
<path d="M2235 351 c3 -6 14 -11 24 -11 9 0 23 -6 30 -12 10 -11 12 -9 9 7 -2
14 -12 21 -37 23 -21 2 -31 0 -26 -7z"/>
</g>
</svg>
